<svg
            xmlns="http://www.w3.org/2000/svg"
            zoomAndPan="magnify"
            viewBox="0 0 529.5 112.499997"
            preserveAspectRatio="xMidYMid meet"
            version="1.0"
          >
            <defs>
              <g />
            </defs>
            <path
              fill="#ffe500"
              d="M 83.515625 29.328125 L 441.425781 10.5 C 443.183594 10.410156 444.679688 11.757812 444.773438 13.515625 L 448.15625 77.828125 C 448.25 79.585938 446.898438 81.085938 445.144531 81.175781 L 87.234375 100.003906 C 85.476562 100.097656 83.980469 98.746094 83.886719 96.992188 L 80.503906 32.675781 C 80.410156 30.917969 81.761719 29.417969 83.515625 29.328125 Z M 83.515625 29.328125 "
              fillOpacity="1"
              fillRule="nonzero"
            />
            <g fill="#000000" fillOpacity="1">
              <g transform="translate(100.811356, 81.774758)">
                <g>
                  <path d="M 13.34375 -32.0625 C 17.96875 -32.3125 22.09375 -31.378906 25.71875 -29.265625 L 23.078125 -22.984375 C 21.398438 -23.828125 19.617188 -24.503906 17.734375 -25.015625 C 15.847656 -25.523438 14.273438 -25.742188 13.015625 -25.671875 C 10.742188 -25.554688 9.648438 -24.75 9.734375 -23.25 C 9.785156 -22.269531 10.382812 -21.515625 11.53125 -20.984375 C 12.6875 -20.453125 14.070312 -20.015625 15.6875 -19.671875 C 17.3125 -19.328125 18.941406 -18.894531 20.578125 -18.375 C 22.222656 -17.863281 23.640625 -16.957031 24.828125 -15.65625 C 26.023438 -14.363281 26.675781 -12.6875 26.78125 -10.625 C 26.9375 -7.65625 25.894531 -5.273438 23.65625 -3.484375 C 21.414062 -1.691406 18.5 -0.703125 14.90625 -0.515625 C 12.34375 -0.378906 9.785156 -0.6875 7.234375 -1.4375 C 4.691406 -2.195312 2.445312 -3.296875 0.5 -4.734375 L 3.25 -10.9375 C 4.875 -9.664062 6.765625 -8.648438 8.921875 -7.890625 C 11.085938 -7.128906 13 -6.789062 14.65625 -6.875 C 15.914062 -6.945312 16.890625 -7.226562 17.578125 -7.71875 C 18.265625 -8.21875 18.582031 -8.910156 18.53125 -9.796875 C 18.488281 -10.648438 18.046875 -11.34375 17.203125 -11.875 C 16.367188 -12.40625 15.335938 -12.78125 14.109375 -13 C 12.890625 -13.21875 11.5625 -13.523438 10.125 -13.921875 C 8.6875 -14.316406 7.347656 -14.757812 6.109375 -15.25 C 4.878906 -15.75 3.828125 -16.585938 2.953125 -17.765625 C 2.078125 -18.941406 1.59375 -20.390625 1.5 -22.109375 C 1.351562 -24.929688 2.359375 -27.25 4.515625 -29.0625 C 6.679688 -30.875 9.625 -31.875 13.34375 -32.0625 Z M 13.34375 -32.0625 " />
                </g>
              </g>
            </g>
            <g fill="#000000" fillOpacity="1">
              <g transform="translate(129.262808, 80.278193)">
                <g>
                  <path d="M 10.953125 -0.578125 L 3.09375 -0.15625 L 1.46875 -31.078125 L 9.328125 -31.5 Z M 10.953125 -0.578125 " />
                </g>
              </g>
            </g>
            <g fill="#000000" fillOpacity="1">
              <g transform="translate(143.311821, 79.539206)">
                <g>
                  <path d="M 37.078125 -1.953125 L 30.125 -1.578125 L 29.03125 -21.6875 L 22.515625 -4.28125 L 17.375 -4.015625 L 9.0625 -20.640625 L 10.125 -0.53125 L 3.09375 -0.15625 L 1.46875 -31.125 L 10.078125 -31.578125 L 19.453125 -13.609375 L 26.875 -32.46875 L 35.453125 -32.921875 Z M 37.078125 -1.953125 " />
                </g>
              </g>
            </g>
            <g fill="#000000" fillOpacity="1">
              <g transform="translate(183.51497, 77.424494)">
                <g>
                  <path d="M 1.46875 -31.078125 L 14.953125 -31.796875 C 18.890625 -32.003906 22 -31.234375 24.28125 -29.484375 C 26.5625 -27.734375 27.789062 -25.128906 27.96875 -21.671875 C 28.15625 -18.054688 27.210938 -15.1875 25.140625 -13.0625 C 23.066406 -10.945312 20.0625 -9.785156 16.125 -9.578125 L 10.5 -9.28125 L 10.953125 -0.578125 L 3.09375 -0.15625 Z M 9.65625 -25.328125 L 10.171875 -15.46875 L 15.40625 -15.734375 C 17.132812 -15.828125 18.445312 -16.328125 19.34375 -17.234375 C 20.238281 -18.140625 20.644531 -19.398438 20.5625 -21.015625 C 20.476562 -22.609375 19.941406 -23.789062 18.953125 -24.5625 C 17.972656 -25.34375 16.617188 -25.6875 14.890625 -25.59375 Z M 9.65625 -25.328125 " />
                </g>
              </g>
            </g>
            <g fill="#000000" fillOpacity="1">
              <g transform="translate(213.55689, 75.844269)">
                <g>
                  <path d="M 10.609375 -7.15625 L 23.734375 -7.84375 L 24.078125 -1.265625 L 3.09375 -0.15625 L 1.46875 -31.078125 L 9.328125 -31.5 Z M 10.609375 -7.15625 " />
                </g>
              </g>
            </g>
            <g fill="#000000" fillOpacity="1">
              <g transform="translate(238.297288, 74.542908)">
                <g>
                  <path d="M 26.015625 -26.1875 L 9.65625 -25.328125 L 9.96875 -19.171875 L 24.734375 -19.953125 L 25.0625 -13.78125 L 10.296875 -13 L 10.625 -6.75 L 27.46875 -7.640625 L 27.796875 -1.46875 L 3.09375 -0.15625 L 1.46875 -31.078125 L 25.6875 -32.359375 Z M 26.015625 -26.1875 " />
                </g>
              </g>
            </g>
            <g fill="#000000" fillOpacity="1">
              <g transform="translate(268.074121, 72.976628)">
                <g>
                  <path d="M 1.46875 -31.078125 L 16.09375 -31.859375 C 19.570312 -32.035156 22.367188 -31.476562 24.484375 -30.1875 C 26.597656 -28.90625 27.71875 -27.085938 27.84375 -24.734375 C 27.925781 -23.109375 27.53125 -21.65625 26.65625 -20.375 C 25.78125 -19.101562 24.535156 -18.195312 22.921875 -17.65625 C 24.890625 -17.375 26.476562 -16.550781 27.6875 -15.1875 C 28.90625 -13.832031 29.566406 -12.148438 29.671875 -10.140625 C 29.804688 -7.523438 28.847656 -5.390625 26.796875 -3.734375 C 24.753906 -2.078125 21.90625 -1.148438 18.25 -0.953125 L 3.09375 -0.15625 Z M 9.609375 -25.5 L 9.953125 -19.125 L 16.296875 -19.453125 C 17.453125 -19.515625 18.351562 -19.851562 19 -20.46875 C 19.644531 -21.082031 19.941406 -21.890625 19.890625 -22.890625 C 19.835938 -23.867188 19.457031 -24.617188 18.75 -25.140625 C 18.039062 -25.660156 17.109375 -25.890625 15.953125 -25.828125 Z M 10.25 -13.484375 L 10.609375 -6.625 L 16.953125 -6.953125 C 18.429688 -7.035156 19.570312 -7.40625 20.375 -8.0625 C 21.175781 -8.726562 21.550781 -9.609375 21.5 -10.703125 C 21.445312 -11.734375 20.984375 -12.53125 20.109375 -13.09375 C 19.242188 -13.65625 18.070312 -13.894531 16.59375 -13.8125 Z M 10.25 -13.484375 " />
                </g>
              </g>
            </g>
            <g fill="#000000" fillOpacity="1">
              <g transform="translate(299.662312, 71.315068)">
                <g>
                  <path d="M 23.34375 -6.9375 L 9.828125 -6.21875 L 7.859375 -0.40625 L -0.21875 0.015625 L 11.5 -31.609375 L 19.578125 -32.03125 L 34.25 -1.796875 L 25.859375 -1.359375 Z M 20.734375 -12.796875 L 15.703125 -24 L 11.8125 -12.328125 Z M 20.734375 -12.796875 " />
                </g>
              </g>
            </g>
            <g fill="#000000" fillOpacity="1">
              <g transform="translate(333.680356, 69.525697)">
                <g>
                  <path d="M 18.515625 -10.984375 L 19.046875 -1 L 11.21875 -0.59375 L 10.703125 -10.359375 L -1.84375 -30.90625 L 6.015625 -31.328125 L 14.203125 -18.25 L 20.78125 -32.09375 L 28.640625 -32.515625 Z M 18.515625 -10.984375 " />
                </g>
              </g>
            </g>
            <g fill="#000000" fillOpacity="1">
              <g transform="translate(363.722277, 67.945472)">
                <g>
                  <path d="M 23.34375 -6.9375 L 9.828125 -6.21875 L 7.859375 -0.40625 L -0.21875 0.015625 L 11.5 -31.609375 L 19.578125 -32.03125 L 34.25 -1.796875 L 25.859375 -1.359375 Z M 20.734375 -12.796875 L 15.703125 -24 L 11.8125 -12.328125 Z M 20.734375 -12.796875 " />
                </g>
              </g>
            </g>
            <g fill="#000000" fillOpacity="1">
              <g transform="translate(397.740321, 66.156101)">
                <g>
                  <path d="M 21.734375 -1.140625 L 16.6875 -9.609375 L 16.46875 -9.59375 L 10.5 -9.28125 L 10.953125 -0.578125 L 3.09375 -0.15625 L 1.46875 -31.078125 L 15.296875 -31.8125 C 19.390625 -32.03125 22.601562 -31.265625 24.9375 -29.515625 C 27.28125 -27.765625 28.539062 -25.160156 28.71875 -21.703125 C 28.96875 -16.941406 27.273438 -13.53125 23.640625 -11.46875 L 30.65625 -1.609375 Z M 10.171875 -15.46875 L 16.140625 -15.78125 C 17.847656 -15.875 19.148438 -16.367188 20.046875 -17.265625 C 20.941406 -18.171875 21.347656 -19.429688 21.265625 -21.046875 C 21.179688 -22.640625 20.644531 -23.828125 19.65625 -24.609375 C 18.675781 -25.390625 17.332031 -25.734375 15.625 -25.640625 L 9.65625 -25.328125 Z M 10.171875 -15.46875 " />
                </g>
              </g>
            </g>
            <path
              fill="#ffe500"
              d="M 83.515625 29.328125 L 441.425781 10.5 C 443.183594 10.410156 444.679688 11.757812 444.773438 13.515625 L 448.15625 77.828125 C 448.25 79.585938 446.898438 81.085938 445.144531 81.175781 L 87.234375 100.003906 C 85.476562 100.097656 83.980469 98.746094 83.886719 96.992188 L 80.503906 32.675781 C 80.410156 30.917969 81.761719 29.417969 83.515625 29.328125 Z M 83.515625 29.328125 "
              fillOpacity="1"
              fillRule="nonzero"
            />
            <g fill="#000000" fillOpacity="1">
              <g transform="translate(100.811356, 81.774758)">
                <g>
                  <path d="M 13.34375 -32.0625 C 17.96875 -32.3125 22.09375 -31.378906 25.71875 -29.265625 L 23.078125 -22.984375 C 21.398438 -23.828125 19.617188 -24.503906 17.734375 -25.015625 C 15.847656 -25.523438 14.273438 -25.742188 13.015625 -25.671875 C 10.742188 -25.554688 9.648438 -24.75 9.734375 -23.25 C 9.785156 -22.269531 10.382812 -21.515625 11.53125 -20.984375 C 12.6875 -20.453125 14.070312 -20.015625 15.6875 -19.671875 C 17.3125 -19.328125 18.941406 -18.894531 20.578125 -18.375 C 22.222656 -17.863281 23.640625 -16.957031 24.828125 -15.65625 C 26.023438 -14.363281 26.675781 -12.6875 26.78125 -10.625 C 26.9375 -7.65625 25.894531 -5.273438 23.65625 -3.484375 C 21.414062 -1.691406 18.5 -0.703125 14.90625 -0.515625 C 12.34375 -0.378906 9.785156 -0.6875 7.234375 -1.4375 C 4.691406 -2.195312 2.445312 -3.296875 0.5 -4.734375 L 3.25 -10.9375 C 4.875 -9.664062 6.765625 -8.648438 8.921875 -7.890625 C 11.085938 -7.128906 13 -6.789062 14.65625 -6.875 C 15.914062 -6.945312 16.890625 -7.226562 17.578125 -7.71875 C 18.265625 -8.21875 18.582031 -8.910156 18.53125 -9.796875 C 18.488281 -10.648438 18.046875 -11.34375 17.203125 -11.875 C 16.367188 -12.40625 15.335938 -12.78125 14.109375 -13 C 12.890625 -13.21875 11.5625 -13.523438 10.125 -13.921875 C 8.6875 -14.316406 7.347656 -14.757812 6.109375 -15.25 C 4.878906 -15.75 3.828125 -16.585938 2.953125 -17.765625 C 2.078125 -18.941406 1.59375 -20.390625 1.5 -22.109375 C 1.351562 -24.929688 2.359375 -27.25 4.515625 -29.0625 C 6.679688 -30.875 9.625 -31.875 13.34375 -32.0625 Z M 13.34375 -32.0625 " />
                </g>
              </g>
            </g>
            <g fill="#000000" fillOpacity="1">
              <g transform="translate(129.262808, 80.278193)">
                <g>
                  <path d="M 10.953125 -0.578125 L 3.09375 -0.15625 L 1.46875 -31.078125 L 9.328125 -31.5 Z M 10.953125 -0.578125 " />
                </g>
              </g>
            </g>
            <g fill="#000000" fillOpacity="1">
              <g transform="translate(143.311821, 79.539206)">
                <g>
                  <path d="M 37.078125 -1.953125 L 30.125 -1.578125 L 29.03125 -21.6875 L 22.515625 -4.28125 L 17.375 -4.015625 L 9.0625 -20.640625 L 10.125 -0.53125 L 3.09375 -0.15625 L 1.46875 -31.125 L 10.078125 -31.578125 L 19.453125 -13.609375 L 26.875 -32.46875 L 35.453125 -32.921875 Z M 37.078125 -1.953125 " />
                </g>
              </g>
            </g>
            <g fill="#000000" fillOpacity="1">
              <g transform="translate(183.51497, 77.424494)">
                <g>
                  <path d="M 1.46875 -31.078125 L 14.953125 -31.796875 C 18.890625 -32.003906 22 -31.234375 24.28125 -29.484375 C 26.5625 -27.734375 27.789062 -25.128906 27.96875 -21.671875 C 28.15625 -18.054688 27.210938 -15.1875 25.140625 -13.0625 C 23.066406 -10.945312 20.0625 -9.785156 16.125 -9.578125 L 10.5 -9.28125 L 10.953125 -0.578125 L 3.09375 -0.15625 Z M 9.65625 -25.328125 L 10.171875 -15.46875 L 15.40625 -15.734375 C 17.132812 -15.828125 18.445312 -16.328125 19.34375 -17.234375 C 20.238281 -18.140625 20.644531 -19.398438 20.5625 -21.015625 C 20.476562 -22.609375 19.941406 -23.789062 18.953125 -24.5625 C 17.972656 -25.34375 16.617188 -25.6875 14.890625 -25.59375 Z M 9.65625 -25.328125 " />
                </g>
              </g>
            </g>
            <g fill="#000000" fillOpacity="1">
              <g transform="translate(213.55689, 75.844269)">
                <g>
                  <path d="M 10.609375 -7.15625 L 23.734375 -7.84375 L 24.078125 -1.265625 L 3.09375 -0.15625 L 1.46875 -31.078125 L 9.328125 -31.5 Z M 10.609375 -7.15625 " />
                </g>
              </g>
            </g>
            <g fill="#000000" fillOpacity="1">
              <g transform="translate(238.297288, 74.542908)">
                <g>
                  <path d="M 26.015625 -26.1875 L 9.65625 -25.328125 L 9.96875 -19.171875 L 24.734375 -19.953125 L 25.0625 -13.78125 L 10.296875 -13 L 10.625 -6.75 L 27.46875 -7.640625 L 27.796875 -1.46875 L 3.09375 -0.15625 L 1.46875 -31.078125 L 25.6875 -32.359375 Z M 26.015625 -26.1875 " />
                </g>
              </g>
            </g>
            <g fill="#000000" fillOpacity="1">
              <g transform="translate(268.074121, 72.976628)">
                <g>
                  <path d="M 1.46875 -31.078125 L 16.09375 -31.859375 C 19.570312 -32.035156 22.367188 -31.476562 24.484375 -30.1875 C 26.597656 -28.90625 27.71875 -27.085938 27.84375 -24.734375 C 27.925781 -23.109375 27.53125 -21.65625 26.65625 -20.375 C 25.78125 -19.101562 24.535156 -18.195312 22.921875 -17.65625 C 24.890625 -17.375 26.476562 -16.550781 27.6875 -15.1875 C 28.90625 -13.832031 29.566406 -12.148438 29.671875 -10.140625 C 29.804688 -7.523438 28.847656 -5.390625 26.796875 -3.734375 C 24.753906 -2.078125 21.90625 -1.148438 18.25 -0.953125 L 3.09375 -0.15625 Z M 9.609375 -25.5 L 9.953125 -19.125 L 16.296875 -19.453125 C 17.453125 -19.515625 18.351562 -19.851562 19 -20.46875 C 19.644531 -21.082031 19.941406 -21.890625 19.890625 -22.890625 C 19.835938 -23.867188 19.457031 -24.617188 18.75 -25.140625 C 18.039062 -25.660156 17.109375 -25.890625 15.953125 -25.828125 Z M 10.25 -13.484375 L 10.609375 -6.625 L 16.953125 -6.953125 C 18.429688 -7.035156 19.570312 -7.40625 20.375 -8.0625 C 21.175781 -8.726562 21.550781 -9.609375 21.5 -10.703125 C 21.445312 -11.734375 20.984375 -12.53125 20.109375 -13.09375 C 19.242188 -13.65625 18.070312 -13.894531 16.59375 -13.8125 Z M 10.25 -13.484375 " />
                </g>
              </g>
            </g>
            <g fill="#000000" fillOpacity="1">
              <g transform="translate(299.662312, 71.315068)">
                <g>
                  <path d="M 23.34375 -6.9375 L 9.828125 -6.21875 L 7.859375 -0.40625 L -0.21875 0.015625 L 11.5 -31.609375 L 19.578125 -32.03125 L 34.25 -1.796875 L 25.859375 -1.359375 Z M 20.734375 -12.796875 L 15.703125 -24 L 11.8125 -12.328125 Z M 20.734375 -12.796875 " />
                </g>
              </g>
            </g>
            <g fill="#000000" fillOpacity="1">
              <g transform="translate(333.680356, 69.525697)">
                <g>
                  <path d="M 18.515625 -10.984375 L 19.046875 -1 L 11.21875 -0.59375 L 10.703125 -10.359375 L -1.84375 -30.90625 L 6.015625 -31.328125 L 14.203125 -18.25 L 20.78125 -32.09375 L 28.640625 -32.515625 Z M 18.515625 -10.984375 " />
                </g>
              </g>
            </g>
            <g fill="#000000" fillOpacity="1">
              <g transform="translate(363.722277, 67.945472)">
                <g>
                  <path d="M 23.34375 -6.9375 L 9.828125 -6.21875 L 7.859375 -0.40625 L -0.21875 0.015625 L 11.5 -31.609375 L 19.578125 -32.03125 L 34.25 -1.796875 L 25.859375 -1.359375 Z M 20.734375 -12.796875 L 15.703125 -24 L 11.8125 -12.328125 Z M 20.734375 -12.796875 " />
                </g>
              </g>
            </g>
            <g fill="#000000" fillOpacity="1">
              <g transform="translate(397.740321, 66.156101)">
                <g>
                  <path d="M 21.734375 -1.140625 L 16.6875 -9.609375 L 16.46875 -9.59375 L 10.5 -9.28125 L 10.953125 -0.578125 L 3.09375 -0.15625 L 1.46875 -31.078125 L 15.296875 -31.8125 C 19.390625 -32.03125 22.601562 -31.265625 24.9375 -29.515625 C 27.28125 -27.765625 28.539062 -25.160156 28.71875 -21.703125 C 28.96875 -16.941406 27.273438 -13.53125 23.640625 -11.46875 L 30.65625 -1.609375 Z M 10.171875 -15.46875 L 16.140625 -15.78125 C 17.847656 -15.875 19.148438 -16.367188 20.046875 -17.265625 C 20.941406 -18.171875 21.347656 -19.429688 21.265625 -21.046875 C 21.179688 -22.640625 20.644531 -23.828125 19.65625 -24.609375 C 18.675781 -25.390625 17.332031 -25.734375 15.625 -25.640625 L 9.65625 -25.328125 Z M 10.171875 -15.46875 " />
                </g>
              </g>
            </g>
          </svg>
